<?xml version="1.0" encoding="utf-8"?>
<!-- Generator: Adobe Illustrator 19.1.0, SVG Export Plug-In . SVG Version: 6.00 Build 0)  -->
<svg version="1.1" id="Layer_2" xmlns="http://www.w3.org/2000/svg" xmlns:xlink="http://www.w3.org/1999/xlink" x="0px" y="0px"
	 viewBox="0 0 500 400" style="enable-background:new 0 0 500 400;" xml:space="preserve">
<style type="text/css">
	.st0{fill:#3d5d99;}
</style>
<rect x="468" y="72" class="st0" width="27" height="153"/>
<rect x="378" y="72" class="st0" width="27" height="153"/>
<polygon class="st0" points="405,72 490.3,217 468,225 380,74 "/>
<rect x="258" y="72" class="st0" width="105" height="27"/>
<rect x="258" y="198" class="st0" width="105" height="27"/>
<rect x="297" y="84" class="st0" width="27" height="129"/>
<polygon class="st0" points="248.8,225 216.4,225 184,97 151.6,225 119.2,225 162.4,72 203,72 "/>
<rect x="162" y="162" class="st0" width="44" height="18"/>
<rect x="9" y="72" class="st0" width="27" height="153"/>
<path class="st0" d="M33.3,99L33,72h30c5.9,0.5,16.4,2.2,27,9c9.1,5.8,14.1,12.6,18,18c5.6,7.8,11.6,23.1,13,45
	c1.8,28.2-8.6,48.6-13,54c-2.8,4.4-8.4,11.9-18,18c-11,7-21.7,8.6-27,9H32.8l0.3-27h30c9.9-2,15.3-6.5,17.8-9
	c8.7-8.7,9.8-20.7,11.2-36c0.5-5.9,1-11.1,0-18c-1.1-7.8-2.6-18.7-11.2-27c-2.4-2.3-8.1-7.1-17.8-9H33.3z"/>
<polygon class="st0" points="9,234 9,387 36,387 36,252 36,234 36,234 "/>
<path class="st0" d="M31,258.1L30.8,234H81c3.7,0,13.7,2.4,22.7,11.3c10.9,10.8,12.9,24.5,13.3,28.2v9.9c0,1.7,0,22.6-15.3,33.7
	c-8.4,6.1-17.2,5.8-20.7,5.8H30.8l0.3-24c13.2,0,31.4,0,44.7,0c2.2-0.9,7.8-3.6,11.3-9.8c3.4-6,4.8-15.1,0-22.6
	c-4-6.4-10.5-7.8-12-8.1C62,258.4,31,258.1,31,258.1z"/>
<polygon class="st0" points="90,387 117,387 90,315 63,315 "/>
<path class="st0" d="M126,234"/>
<polygon class="st0" points="170,387 197,387 197,309.3 170,312.3 "/>
<polygon class="st0" points="184,297 216.4,234 248.8,234 196.8,325 170,325 119.2,234 148.3,234 "/>
<path class="st0" d="M252,288c0.4-5.3,2-16,9-27c6.1-9.6,13.6-15.2,18-18c6.1-3.7,15.3-8.1,27-9c3.5-0.3,6.5-0.2,9,0
	c11.7,0.9,20.9,5.3,27,9c4.4,2.8,11.9,8.4,18,18c7,11,8.6,21.7,9,27h-27c-0.4-2.7-1.9-10.9-9-18c-1.9-1.9-8.1-7.6-18-9h-9
	c-2.7,0.4-10.9,1.9-18,9c-1.9,1.9-7.6,8.1-9,18H252z"/>
<path class="st0" d="M378,288c0.4-5.3,2-16,9-27c6.1-9.6,13.6-15.2,18-18c6.1-3.7,15.3-8.1,27-9c3.5-0.3,6.5-0.2,9,0
	c11.7,0.9,20.9,5.3,27,9c4.4,2.8,11.9,8.4,18,18c7,11,8.6,21.7,9,27h-27c-0.4-2.7-1.9-10.9-9-18c-1.9-1.9-8.1-7.6-18-9h-9
	c-2.7,0.4-10.9,1.9-18,9c-1.9,1.9-7.6,8.1-9,18H378z"/>
<path class="st0" d="M369,333c-0.4,5-2,15.9-9,26.9c-6.1,9.6-13.6,15.2-18,18c-6.1,3.7-15.3,8.1-27,9c-3.5,0.3-6.5,0.2-9,0
	c-11.7-0.9-20.9-5.3-27-9c-4.4-2.8-11.9-8.3-18-17.9c-7-11-8.6-21.9-9-26.9h27c0.4,2,1.9,10.9,9,18c1.9,1.9,8.1,7,18,9h9
	c2.7-1,10.9-1.9,18-9c1.9-1.9,7.6-8,9-18H369z"/>
<path class="st0" d="M495,333c-0.4,5-2,15.9-9,26.9c-6.1,9.6-13.6,15.2-18,18c-6.1,3.7-15.3,8.1-27,9c-3.5,0.3-6.5,0.2-9,0
	c-11.7-0.9-20.9-5.3-27-9c-4.4-2.8-11.9-8.3-18-17.9c-7-11-8.6-21.9-9-26.9h27c0.4,2,1.9,10.9,9,18c1.9,1.9,8.1,7,18,9h9
	c2.7-1,10.9-1.9,18-9c1.9-1.9,7.6-8,9-18H495z"/>
<rect x="252" y="286" class="st0" width="27" height="49"/>
<rect x="378" y="286" class="st0" width="27" height="49"/>
<rect x="342" y="286" class="st0" width="27" height="49"/>
<rect x="468" y="286" class="st0" width="27" height="49"/>
</svg>
