<?xml version="1.0" encoding="utf-8"?>
<!-- Generator: Adobe Illustrator 19.1.0, SVG Export Plug-In . SVG Version: 6.00 Build 0)  -->
<svg version="1.1" id="Layer_1" xmlns="http://www.w3.org/2000/svg" xmlns:xlink="http://www.w3.org/1999/xlink" x="0px" y="0px"
	 viewBox="0 0 1100 160" style="enable-background:new 0 0 1100 160;" xml:space="preserve">
<style type="text/css">
	.st0{fill:white;}
</style>
<rect x="468" y="5" class="st0" width="27" height="153"/>
<rect x="378" y="5" class="st0" width="27" height="153"/>
<polygon class="st0" points="405,5 490.3,150 468,158 380,7 "/>
<rect x="258" y="5" class="st0" width="105" height="27"/>
<rect x="258" y="131" class="st0" width="105" height="27"/>
<rect x="297" y="17" class="st0" width="27" height="129"/>
<polygon class="st0" points="248.8,158 216.4,158 184,30 151.6,158 119.2,158 162.4,5 203,5 "/>
<rect x="162" y="95" class="st0" width="44" height="18"/>
<rect x="9" y="5" class="st0" width="27" height="153"/>
<path class="st0" d="M33.3,32L33,5h30c5.9,0.5,16.4,2.2,27,9c9.1,5.8,14.1,12.6,18,18c5.6,7.8,11.6,23.1,13,45
	c1.8,28.2-8.6,48.6-13,54c-2.8,4.4-8.4,11.9-18,18c-11,7-21.7,8.6-27,9H32.8l0.3-27h30c9.9-2,15.3-6.5,17.8-9
	c8.7-8.7,9.8-20.7,11.2-36c0.5-5.9,1-11.1,0-18c-1.1-7.8-2.6-18.7-11.2-27c-2.4-2.3-8.1-7.1-17.8-9H33.3z"/>
<polygon class="st0" points="609,4 609,157 636,157 636,22 636,4 636,4 "/>
<path class="st0" d="M631,28.1L630.8,4H681c3.7,0,13.7,2.4,22.7,11.3c10.9,10.8,12.9,24.5,13.3,28.2v9.9c0,1.7,0,22.6-15.3,33.7
	c-8.4,6.1-17.2,5.8-20.7,5.8h-50.3l0.3-24c13.2,0,31.4,0,44.7,0c2.2-0.9,7.8-3.6,11.3-9.8c3.4-6,4.8-15.1,0-22.6
	c-4-6.4-10.5-7.8-12-8.1C662,28.4,631,28.1,631,28.1z"/>
<polygon class="st0" points="690,157 717,157 690,85 663,85 "/>
<path class="st0" d="M726,4"/>
<polygon class="st0" points="766,157 802,157 802,79.3 766,82.3 "/>
<polygon class="st0" points="784,67 816.4,4 848.8,4 802,85 766,85 719.2,4 751.6,4 "/>
<path class="st0" d="M852,58c0.4-5.3,2-16,9-27c6.1-9.6,13.6-15.2,18-18c6.1-3.7,15.3-8.1,27-9c3.5-0.3,6.5-0.2,9,0
	c11.7,0.9,20.9,5.3,27,9c4.4,2.8,11.9,8.4,18,18c7,11,8.6,21.7,9,27h-27c-0.4-2.7-1.9-10.9-9-18c-1.9-1.9-8.1-7.6-18-9h-9
	c-2.7,0.4-10.9,1.9-18,9c-1.9,1.9-7.6,8.1-9,18H852z"/>
<path class="st0" d="M978,58c0.4-5.3,2-16,9-27c6.1-9.6,13.6-15.2,18-18c6.1-3.7,15.3-8.1,27-9c3.5-0.3,6.5-0.2,9,0
	c11.7,0.9,20.9,5.3,27,9c4.4,2.8,11.9,8.4,18,18c7,11,8.6,21.7,9,27h-27c-0.4-2.7-1.9-10.9-9-18c-1.9-1.9-8.1-7.6-18-9h-9
	c-2.7,0.4-10.9,1.9-18,9c-1.9,1.9-7.6,8.1-9,18H978z"/>
<path class="st0" d="M969,103c-0.4,5-2,15.9-9,26.9c-6.1,9.6-13.6,15.2-18,18c-6.1,3.7-15.3,8.1-27,9c-3.5,0.3-6.5,0.2-9,0
	c-11.7-0.9-20.9-5.3-27-9c-4.4-2.8-11.9-8.3-18-17.9c-7-11-8.6-21.9-9-26.9h27c0.4,2,1.9,10.9,9,18c1.9,1.9,8.1,7,18,9h9
	c2.7-1,10.9-1.9,18-9c1.9-1.9,7.6-8,9-18H969z"/>
<path class="st0" d="M1095,103c-0.4,5-2,15.9-9,26.9c-6.1,9.6-13.6,15.2-18,18c-6.1,3.7-15.3,8.1-27,9c-3.5,0.3-6.5,0.2-9,0
	c-11.7-0.9-20.9-5.3-27-9c-4.4-2.8-11.9-8.3-18-17.9c-7-11-8.6-21.9-9-26.9h27c0.4,2,1.9,10.9,9,18c1.9,1.9,8.1,7,18,9h9
	c2.7-1,10.9-1.9,18-9c1.9-1.9,7.6-8,9-18H1095z"/>
<rect x="852" y="56" class="st0" width="27" height="49"/>
<rect x="978" y="56" class="st0" width="27" height="49"/>
<rect x="942" y="56" class="st0" width="27" height="49"/>
<rect x="1068" y="56" class="st0" width="27" height="49"/>
</svg>
